<svg width="30" height="26" viewBox="0 0 30 26" fill="none" xmlns="http://www.w3.org/2000/svg">
<path d="M23.8623 12.8212C23.8623 15.0092 22.9931 17.1076 21.4459 18.6548C19.8988 20.202 17.8003 21.0712 15.6123 21.0712C13.4243 21.0712 11.3258 20.202 9.77867 18.6548C8.2315 17.1076 7.3623 15.0092 7.3623 12.8212C7.3623 10.6331 8.2315 8.53472 9.77867 6.98755C11.3258 5.44037 13.4243 4.57118 15.6123 4.57118C17.8003 4.57118 19.8988 5.44037 21.4459 6.98755C22.9931 8.53472 23.8623 10.6331 23.8623 12.8212ZM15.6123 20.0399C16.5603 20.0399 17.499 19.8532 18.3748 19.4904C19.2506 19.1277 20.0464 18.5959 20.7167 17.9256C21.3871 17.2553 21.9188 16.4595 22.2816 15.5837C22.6443 14.7079 22.8311 13.7692 22.8311 12.8212C22.8311 11.8732 22.6443 10.9345 22.2816 10.0587C21.9188 9.18287 21.3871 8.38708 20.7167 7.71675C20.0464 7.04643 19.2506 6.5147 18.3748 6.15193C17.499 5.78915 16.5603 5.60243 15.6123 5.60243C13.6978 5.60243 11.8617 6.36298 10.5079 7.71675C9.1541 9.07053 8.39355 10.9066 8.39355 12.8212C8.39355 14.7357 9.1541 16.5718 10.5079 17.9256C11.8617 19.2794 13.6978 20.0399 15.6123 20.0399ZM29.5239 3.99368C29.5239 3.06556 28.7711 2.31274 27.8429 2.31274C26.5023 2.31274 25.4298 3.39556 25.4401 4.72587V10.4493C25.4401 11.7415 26.1888 12.8985 27.3479 13.4224V22.3087C27.3479 22.8449 27.7811 23.2781 28.3173 23.2781H28.5545C29.0907 23.2781 29.5239 22.8449 29.5239 22.3087V3.99368ZM5.6298 2.31274C5.44382 2.31274 5.26546 2.38662 5.13395 2.51813C5.00244 2.64964 4.92855 2.82801 4.92855 3.01399V5.78806C4.92855 5.99431 4.76355 6.14899 4.56762 6.14899C4.36137 6.14899 4.20668 5.98399 4.20668 5.78806V3.04493C4.20668 2.66337 3.90762 2.32306 3.52605 2.31274C3.12387 2.30243 2.79387 2.62212 2.79387 3.01399V5.78806C2.79387 5.99431 2.62887 6.14899 2.43293 6.14899C2.22668 6.14899 2.07199 5.98399 2.07199 5.78806V3.04493C2.07199 2.66337 1.77293 2.32306 1.39137 2.31274C0.98918 2.30243 0.65918 2.62212 0.65918 3.01399V7.73712C0.65918 8.66731 1.10984 9.49746 1.80284 10.0152C2.42262 10.3647 2.42262 11.9652 2.42262 11.9652V22.2984C2.42262 22.8346 2.85574 23.2677 3.39199 23.2677H3.62918C4.16543 23.2677 4.59855 22.8346 4.59855 22.2984V11.9652C4.59855 11.9652 4.59855 10.4277 5.21834 10.0152C5.5731 9.75063 5.86121 9.40696 6.05976 9.01148C6.2583 8.616 6.36179 8.17964 6.36199 7.73712V3.01399C6.35155 2.82607 6.27013 2.64913 6.13421 2.51895C5.99829 2.38877 5.818 2.31507 5.6298 2.31274Z" fill="#828282"/>
<mask id="path-2-outside-1_1736_1839" maskUnits="userSpaceOnUse" x="4.65918" y="-0.6875" width="22" height="27" fill="black">
<rect fill="white" x="4.65918" y="-0.6875" width="22" height="27"/>
<path fill-rule="evenodd" clip-rule="evenodd" d="M7.65918 4.23426C9.77128 2.4175 12.5472 1.3125 15.5968 1.3125C19.155 1.3125 22.3409 2.81696 24.5342 5.20113V3.78642C22.2045 1.63316 19.0586 0.3125 15.5968 0.3125C12.6081 0.3125 9.85498 1.29678 7.65918 2.95132V4.23426ZM26.0967 18.661C24.0534 22.2489 20.1269 24.6875 15.5968 24.6875C11.4525 24.6875 7.81338 22.6467 5.65918 19.5521V21.1802C8.04385 23.9367 11.6108 25.6875 15.5968 25.6875C19.9095 25.6875 23.7318 23.6378 26.0967 20.4822V18.661Z"/>
</mask>
<path fill-rule="evenodd" clip-rule="evenodd" d="M7.65918 4.23426C9.77128 2.4175 12.5472 1.3125 15.5968 1.3125C19.155 1.3125 22.3409 2.81696 24.5342 5.20113V3.78642C22.2045 1.63316 19.0586 0.3125 15.5968 0.3125C12.6081 0.3125 9.85498 1.29678 7.65918 2.95132V4.23426ZM26.0967 18.661C24.0534 22.2489 20.1269 24.6875 15.5968 24.6875C11.4525 24.6875 7.81338 22.6467 5.65918 19.5521V21.1802C8.04385 23.9367 11.6108 25.6875 15.5968 25.6875C19.9095 25.6875 23.7318 23.6378 26.0967 20.4822V18.661Z" fill="#828282"/>
<path d="M7.65918 4.23426H7.35918V4.88802L7.85481 4.4617L7.65918 4.23426ZM24.5342 5.20113L24.3134 5.40424L24.8342 5.97034V5.20113H24.5342ZM24.5342 3.78642H24.8342V3.65519L24.7378 3.56611L24.5342 3.78642ZM7.65918 2.95132L7.47864 2.71173L7.35918 2.80174V2.95132H7.65918ZM26.0967 18.661H26.3967V17.528L25.836 18.5126L26.0967 18.661ZM5.65918 19.5521L5.9054 19.3807L5.35918 18.596V19.5521H5.65918ZM5.65918 21.1802H5.35918V21.2919L5.4323 21.3764L5.65918 21.1802ZM26.0967 20.4822L26.3367 20.6621L26.3967 20.5821V20.4822H26.0967ZM15.5968 1.0125C12.4736 1.0125 9.62866 2.14446 7.46355 4.00682L7.85481 4.4617C9.9139 2.69054 12.6209 1.6125 15.5968 1.6125V1.0125ZM24.755 4.99802C22.5063 2.55372 19.2411 1.0125 15.5968 1.0125V1.6125C19.0689 1.6125 22.1754 3.08019 24.3134 5.40424L24.755 4.99802ZM24.2342 3.78642V5.20113H24.8342V3.78642H24.2342ZM15.5968 0.6125C18.9812 0.6125 22.0548 1.90333 24.3306 4.00673L24.7378 3.56611C22.3542 1.363 19.1361 0.0125 15.5968 0.0125V0.6125ZM7.83972 3.19092C9.9848 1.57459 12.6749 0.6125 15.5968 0.6125V0.0125C12.5413 0.0125 9.72515 1.01898 7.47864 2.71173L7.83972 3.19092ZM7.35918 2.95132V4.23426H7.95918V2.95132H7.35918ZM15.5968 24.9875C20.2366 24.9875 24.2617 22.4894 26.3574 18.8095L25.836 18.5126C23.8452 22.0084 20.0172 24.3875 15.5968 24.3875V24.9875ZM5.41296 19.7235C7.62198 22.8968 11.3521 24.9875 15.5968 24.9875V24.3875C11.5528 24.3875 8.00478 22.3965 5.9054 19.3807L5.41296 19.7235ZM5.95918 21.1802V19.5521H5.35918V21.1802H5.95918ZM15.5968 25.3875C11.7002 25.3875 8.21524 23.6763 5.88606 20.9839L5.4323 21.3764C7.87247 24.1972 11.5215 25.9875 15.5968 25.9875V25.3875ZM25.8566 20.3023C23.547 23.3842 19.8128 25.3875 15.5968 25.3875V25.9875C20.0063 25.9875 23.9166 23.8915 26.3367 20.6621L25.8566 20.3023ZM25.7967 18.661V20.4822H26.3967V18.661H25.7967Z" fill="#828282" mask="url(#path-2-outside-1_1736_1839)"/>
</svg>
