<svg width="16" height="16" viewBox="0 0 16 16" fill="none" xmlns="http://www.w3.org/2000/svg">
<path d="M14.2222 2.66675H1.7778C1.54206 2.66675 1.31596 2.7604 1.14927 2.9271C0.982566 3.0938 0.888916 3.31989 0.888916 3.55564V12.4445C0.888916 12.6803 0.982566 12.9064 1.14927 13.0731C1.31596 13.2398 1.54206 13.3334 1.7778 13.3334H14.2222C14.458 13.3334 14.6841 13.2398 14.8508 13.0731C15.0175 12.9064 15.1111 12.6803 15.1111 12.4445V3.55564C15.1111 3.31989 15.0175 3.0938 14.8508 2.9271C14.6841 2.7604 14.458 2.66675 14.2222 2.66675ZM13.5378 12.4445H2.51558L5.62669 9.22675L4.98669 8.60897L1.7778 11.929V4.23119L7.30225 9.72897C7.46879 9.89453 7.69408 9.98745 7.92892 9.98745C8.16375 9.98745 8.38904 9.89453 8.55558 9.72897L14.2222 4.09341V11.8712L10.9511 8.60008L10.3245 9.22675L13.5378 12.4445ZM2.36003 3.55564H13.5022L7.92892 9.09786L2.36003 3.55564Z" fill="#CB2640"/>
</svg>
