<svg width="40" height="39" viewBox="0 0 40 39" fill="none" xmlns="http://www.w3.org/2000/svg">
<path d="M33 18H37C38.1046 18 39 18.8954 39 20L39 31.5C39 32.6046 38.1046 33.5 37 33.5H36V36.5858C36 37.4767 34.9229 37.9229 34.2929 37.2929L30.5 33.5H19C17.8954 33.5 17 32.6046 17 31.5V24" stroke="#606062" stroke-width="2"/>
<path d="M3 1C1.89543 1 1 1.89543 1 3V22C1 23.1046 1.89543 24 3 24H4V27.0858C4 27.9767 5.07714 28.4229 5.70711 27.7929L9.5 24H31C32.1046 24 33 23.1046 33 22V3C33 1.89543 32.1046 1 31 1H3Z" stroke="#606062" stroke-width="2"/>
</svg>
